<?xml version="1.0" standalone="no"?>
<!DOCTYPE svg PUBLIC "-//W3C//DTD SVG 20010904//EN"
 "http://www.w3.org/TR/2001/REC-SVG-20010904/DTD/svg10.dtd">
<svg version="1.0" xmlns="http://www.w3.org/2000/svg"
 width="48.000000pt" height="48.000000pt" viewBox="0 0 48.000000 48.000000"
 preserveAspectRatio="xMidYMid meet">
<metadata>
Created by potrace 1.16, written by Peter Selinger 2001-2019
</metadata>
<g transform="translate(0.000000,48.000000) scale(0.100000,-0.100000)"
fill="#000000" stroke="none">
<path d="M363 459 c-17 -18 -24 -19 -43 -9 -14 7 -50 11 -94 8 -82 -4 -130
-30 -174 -95 -24 -34 -27 -47 -27 -123 0 -98 17 -134 89 -186 38 -27 48 -29
127 -29 78 0 89 2 122 28 56 43 89 92 95 142 l5 45 -37 0 c-31 0 -36 -3 -36
-22 0 -64 -76 -128 -150 -128 -152 0 -208 201 -78 280 21 13 51 20 82 20 l49
0 -21 -23 c-12 -13 -22 -26 -22 -30 0 -4 37 -7 81 -7 l82 0 -7 31 c-3 17 -6
51 -6 75 0 49 -6 53 -37 23z"/>
</g>
</svg>
